<?xml version="1.0" standalone="no"?>
<!DOCTYPE svg PUBLIC "-//W3C//DTD SVG 20010904//EN"
 "http://www.w3.org/TR/2001/REC-SVG-20010904/DTD/svg10.dtd">
<svg version="1.0" xmlns="http://www.w3.org/2000/svg"
 width="256.000000pt" height="256.000000pt" viewBox="0 0 256.000000 256.000000"
 preserveAspectRatio="xMidYMid meet">

<g transform="translate(0.000000,256.000000) scale(0.100000,-0.100000)"
fill="#000000" stroke="none">
<path d="M695 2166 c-51 -22 -97 -68 -121 -121 -23 -49 -24 -57 -24 -326 0
-259 1 -277 19 -293 25 -23 63 -17 77 12 7 14 12 113 13 279 2 281 4 292 64
337 28 21 36 21 534 21 488 0 505 1 519 19 18 26 18 51 -2 70 -14 14 -75 16
-532 16 -404 -1 -524 -4 -547 -14z"/>
<path d="M1175 1970 c-153 -32 -292 -137 -351 -266 -15 -33 -33 -71 -40 -85
-16 -31 -3 -233 17 -271 22 -43 57 -50 88 -19 16 16 18 26 10 58 -5 21 -9 66
-9 101 l0 62 394 0 c393 0 395 0 401 -21 9 -27 -3 -120 -21 -171 -20 -59 -18
-83 11 -98 22 -12 29 -11 53 7 36 26 63 108 68 203 2 50 8 76 16 79 19 5 38
32 38 53 0 25 -35 58 -62 58 -18 0 -30 13 -53 58 -38 73 -134 170 -205 204
-107 53 -242 71 -355 48z m240 -124 c69 -21 139 -69 181 -124 18 -25 34 -49
34 -53 0 -5 -157 -9 -350 -9 -192 0 -350 4 -350 8 0 34 108 139 170 164 94 40
214 45 315 14z"/>
<path d="M1902 1894 c-31 -21 -31 -87 0 -108 30 -21 50 -20 82 5 69 55 -9 154
-82 103z"/>
<path d="M1948 1629 c-21 -12 -24 -59 -6 -77 19 -19 45 -14 62 10 20 29 20 34
-4 58 -23 23 -28 24 -52 9z"/>
<path d="M1201 1254 c-130 -35 -251 -136 -315 -264 -20 -40 -36 -81 -36 -91 0
-10 -9 -23 -20 -29 -34 -18 -44 -58 -23 -89 10 -14 24 -39 33 -56 27 -54 100
-39 100 21 l0 24 380 0 380 0 -6 -32 c-10 -60 -63 -156 -106 -192 -74 -64 -91
-66 -487 -66 -331 0 -358 1 -387 19 -57 34 -63 65 -62 279 2 203 -2 222 -47
222 -12 0 -30 -9 -39 -19 -15 -17 -17 -43 -14 -238 l3 -220 30 -48 c22 -36 45
-57 85 -77 l54 -29 390 3 391 3 58 27 c115 54 207 169 237 298 8 32 23 64 36
77 31 29 30 48 -5 84 -16 16 -37 51 -46 79 -77 231 -349 377 -584 314z m-21
-191 c69 -23 203 -20 270 6 30 11 61 21 68 21 34 0 137 -123 157 -187 l6 -23
-360 0 c-199 0 -361 2 -361 5 0 3 13 32 30 65 39 77 103 145 127 135 10 -4 38
-14 63 -22z"/>
<path d="M1872 1231 c-74 -6 -92 -16 -92 -53 0 -10 9 -27 20 -38 17 -17 33
-20 104 -20 79 0 86 2 105 26 24 31 26 44 9 66 -17 21 -57 26 -146 19z"/>
<path d="M1942 818 c-19 -19 -15 -66 8 -78 42 -23 82 25 55 66 -17 26 -44 31
-63 12z"/>
<path d="M1872 514 c-42 -29 -17 -124 34 -124 19 0 56 19 66 34 14 21 8 66
-12 86 -24 24 -57 26 -88 4z"/>
<path d="M1 14 c0 -11 3 -14 6 -6 3 7 2 16 -1 19 -3 4 -6 -2 -5 -13z"/>
</g>
</svg>
